<svg width="40" height="40" viewBox="0 0 40 40" fill="none" xmlns="http://www.w3.org/2000/svg">
<path fill-rule="evenodd" clip-rule="evenodd" d="M40 20C40 31.0456 31.0456 40 20 40C8.9543 40 0 31.0456 0 20C0 8.9543 8.9543 0 20 0C31.0456 0 40 8.9543 40 20ZM12 22C13.1046 22 14 21.1046 14 20C14 18.8954 13.1046 18 12 18C10.8954 18 10 18.8954 10 20C10 21.1046 10.8954 22 12 22ZM20 22C21.1046 22 22 21.1046 22 20C22 18.8954 21.1046 18 20 18C18.8954 18 18 18.8954 18 20C18 21.1046 18.8954 22 20 22ZM28 22C29.1046 22 30 21.1046 30 20C30 18.8954 29.1046 18 28 18C26.8954 18 26 18.8954 26 20C26 21.1046 26.8954 22 28 22Z" fill="white"/>
</svg>
