<svg width="44" height="44" viewBox="0 0 44 44" fill="none" xmlns="http://www.w3.org/2000/svg">
<path d="M2 15.3333H42M10.8889 2V6.44444M33.1111 2V6.44444M8.66667 22H13.1111M19.7778 22H24.2222M30.8889 22H35.3333M8.66667 28.6667H13.1111M19.7778 28.6667H24.2222M30.8889 28.6667H35.3333M8.66667 35.3333H13.1111M19.7778 35.3333H24.2222M30.8889 35.3333H35.3333M9.11111 42H34.8889C37.378 42 38.6227 42 39.5733 41.5156C40.4096 41.0896 41.0896 40.4096 41.5156 39.5733C42 38.6227 42 37.378 42 34.8889V13.5556C42 11.0664 42 9.82187 41.5156 8.87116C41.0896 8.03487 40.4096 7.35496 39.5733 6.92887C38.6227 6.44444 37.378 6.44444 34.8889 6.44444H9.11111C6.622 6.44444 5.37742 6.44444 4.42671 6.92887C3.59042 7.35496 2.91051 8.03487 2.48442 8.87116C2 9.82187 2 11.0664 2 13.5556V34.8889C2 37.378 2 38.6227 2.48442 39.5733C2.91051 40.4096 3.59042 41.0896 4.42671 41.5156C5.37742 42 6.62198 42 9.11111 42Z" stroke="#686868" stroke-width="4" stroke-linecap="round"/>
</svg>
