<svg width="40" height="40" viewBox="0 0 40 40" fill="none" xmlns="http://www.w3.org/2000/svg">
<path fill-rule="evenodd" clip-rule="evenodd" d="M36.255 1.60504C34.1149 -0.535011 30.6451 -0.535018 28.505 1.60504L2.64398 27.4661C1.87898 28.2311 1.35752 29.2055 1.14535 30.2662L0.072976 35.6282C-0.438284 38.1844 1.81552 40.4383 4.37182 39.927L9.73368 38.8546C10.7946 38.6425 11.7689 38.121 12.5339 37.356L38.3949 11.4949C40.535 9.35488 40.535 5.88517 38.3949 3.7451L36.255 1.60504ZM31.0883 4.18832C31.8018 3.47497 32.9582 3.47497 33.6717 4.18832L35.8117 6.32839C36.5251 7.04174 36.5251 8.1983 35.8117 8.91166L30.9315 13.7917L26.2084 9.06839L31.0883 4.18832ZM23.6249 11.6517L5.22726 30.0494C4.97226 30.3044 4.79845 30.6292 4.72772 30.9828L3.65535 36.3446L9.01721 35.2722C9.37084 35.2015 9.69562 35.0278 9.95062 34.7728L28.3483 16.375L23.6249 11.6517Z" fill="white"/>
</svg>
