<svg width="22" height="42" viewBox="0 0 22 42" fill="none" xmlns="http://www.w3.org/2000/svg">
<path d="M20.9603 38.3421L20.9594 38.3412L4.02587 21.1208L4.02501 21.1199C3.78069 20.8726 3.77991 20.5477 4.02269 20.2999L20.9533 3.67288L20.9533 3.67295L20.9603 3.66579C21.6172 2.99432 21.6717 1.88508 21.1385 1.15232L21.131 1.14204L21.123 1.13215C20.5089 0.372531 19.4324 0.287386 18.7329 0.930931L18.7267 0.936699L18.7206 0.942678L1.78703 17.6218L1.78574 17.6231C0.105087 19.2906 0.0549881 22.0649 1.73621 23.7885L1.73763 23.79L18.6703 41.0094C19.3706 41.7253 20.4625 41.6386 21.0792 40.8757C21.677 40.1364 21.6183 39.0146 20.9603 38.3421Z" fill="#474747"/>
<path d="M20.9603 38.3421L20.9594 38.3412L4.02587 21.1208L4.02501 21.1199C3.78069 20.8726 3.77991 20.5477 4.02269 20.2999L20.9533 3.67288L20.9533 3.67295L20.9603 3.66579C21.6172 2.99432 21.6717 1.88508 21.1385 1.15232L21.131 1.14204L21.123 1.13215C20.5089 0.372531 19.4324 0.287386 18.7329 0.930931L18.7267 0.936699L18.7206 0.942678L1.78703 17.6218L1.78574 17.6231C0.105087 19.2906 0.0549881 22.0649 1.73621 23.7885L1.73763 23.79L18.6703 41.0094C19.3706 41.7253 20.4625 41.6386 21.0792 40.8757C21.677 40.1364 21.6183 39.0146 20.9603 38.3421Z" stroke="#474747"/>
<path d="M20.9603 38.3421L20.9594 38.3412L4.02587 21.1208L4.02501 21.1199C3.78069 20.8726 3.77991 20.5477 4.02269 20.2999L20.9533 3.67288L20.9533 3.67295L20.9603 3.66579C21.6172 2.99432 21.6717 1.88508 21.1385 1.15232L21.131 1.14204L21.123 1.13215C20.5089 0.372531 19.4324 0.287386 18.7329 0.930931L18.7267 0.936699L18.7206 0.942678L1.78703 17.6218L1.78574 17.6231C0.105087 19.2906 0.0549881 22.0649 1.73621 23.7885L1.73763 23.79L18.6703 41.0094C19.3706 41.7253 20.4625 41.6386 21.0792 40.8757C21.677 40.1364 21.6183 39.0146 20.9603 38.3421Z" stroke="#474747"/>
</svg>
