<svg width="40" height="40" viewBox="0 0 40 40" fill="none" xmlns="http://www.w3.org/2000/svg">
<path d="M20 0C8.97198 0 0 8.97198 0 20C0 31.028 8.97198 40 20 40C31.028 40 40 31.028 40 20C40 8.97198 31.0277 0 20 0ZM20 35.7877C11.2945 35.7877 4.21206 28.7055 4.21206 20C4.21206 11.2945 11.2945 4.21206 20 4.21206C28.7055 4.21206 35.7879 11.2945 35.7879 20C35.7879 28.7055 28.7055 35.7877 20 35.7877Z" fill="#686868"/>
<path d="M28.3396 20.2223H20.1404V13.1202C20.1404 11.9568 19.1977 11.0142 18.0344 11.0142C16.871 11.0142 15.9283 11.9568 15.9283 13.1202V22.3283C15.9283 23.4917 16.871 24.4344 18.0344 24.4344H28.3396C29.503 24.4344 30.4456 23.4917 30.4456 22.3283C30.4456 21.165 29.5027 20.2223 28.3396 20.2223Z" fill="#686868"/>
</svg>
