<svg width="50" height="40" viewBox="0 0 50 40" fill="none" xmlns="http://www.w3.org/2000/svg">
<path d="M24.8917 40C27.2548 40 29.2044 38.2204 29.618 35.8614H20.1654C20.579 38.2204 22.5286 40 24.8917 40ZM40.6459 27.5427C38.972 25.7838 36.9043 24.9353 36.9043 16.4097C36.9043 10.1397 32.5522 4.94568 26.861 3.95241H26.5656C26.92 3.53854 27.1564 2.97982 27.1564 2.35903C27.1564 1.05535 26.152 0 24.9114 0C23.6707 0 22.6664 1.05535 22.6664 2.35903C22.6664 2.97982 22.883 3.53854 23.2572 3.95241H22.9421C17.2509 4.94568 12.8988 10.1397 12.8988 16.4097C12.8988 24.9353 10.831 25.7838 9.15715 27.5427C6.85309 29.9224 8.4679 34.0197 11.6778 34.0197H38.1056C41.3155 34.0197 42.9303 29.9224 40.6459 27.5427ZM1.9102 13.9886C1.9102 16.9891 2.95392 19.8862 4.88381 22.2245L3.5447 23.6317C1.28003 21.0657 0 17.6099 0 14.0507C0 10.4708 1.29972 7.015 3.58409 4.49043L4.9232 5.89757C2.95392 8.17382 1.9102 10.9674 1.9102 13.9886ZM5.29736 14.0507C5.29736 11.9193 6.0063 9.95344 7.34541 8.29798L8.68452 9.70512C7.71958 10.9467 7.22726 12.4159 7.22726 14.0093C7.22726 15.6027 7.73927 17.1133 8.68452 18.3135L7.34541 19.7206C6.0063 18.148 5.29736 16.1614 5.29736 14.0507ZM45.0768 5.89757L46.4159 4.49043C48.7003 7.015 50 10.4501 50 14.0507C50 17.6099 48.72 21.0657 46.4553 23.6317L45.1162 22.2245C47.0264 19.9069 48.0898 17.0098 48.0898 13.9886C48.0898 10.9674 47.0461 8.17382 45.0768 5.89757ZM42.6743 19.7L41.3352 18.2928C42.2804 17.0926 42.7924 15.582 42.7924 13.9886C42.7924 12.4159 42.2804 10.926 41.3352 9.68443L42.6743 8.27729C44.0134 9.93275 44.7223 11.8986 44.7223 14.03C44.7223 16.1614 43.9937 18.148 42.6743 19.7Z" fill="white"/>
</svg>
