<svg width="50" height="40" viewBox="0 0 50 40" fill="none" xmlns="http://www.w3.org/2000/svg">
<path d="M24.4968 40C26.9552 40 28.9834 38.2204 29.4136 35.8614H19.5801C20.0103 38.2204 22.0385 40 24.4968 40ZM40.886 27.5427C39.1447 25.7838 36.9936 24.9353 36.9936 16.4097C36.9936 10.1397 32.4661 4.94568 26.5455 3.95241H26.2382C26.6069 3.53854 26.8528 2.97982 26.8528 2.35903C26.8528 1.05535 25.808 0 24.5173 0C23.2267 0 22.1819 1.05535 22.1819 2.35903C22.1819 2.97982 22.4072 3.53854 22.7965 3.95241H22.4687C16.5481 4.94568 12.0206 10.1397 12.0206 16.4097C12.0206 24.9353 9.86949 25.7838 8.12814 27.5427C5.73122 29.9224 7.41112 34.0197 10.7504 34.0197H38.2433C41.5826 34.0197 43.2625 29.9224 40.886 27.5427Z" fill="white"/>
</svg>
