<svg width="40" height="40" viewBox="0 0 40 40" fill="none" xmlns="http://www.w3.org/2000/svg">
<path fill-rule="evenodd" clip-rule="evenodd" d="M20.8313 3.90248H40V8.14925H20.8313V3.90248ZM20.8313 18.7662H40V23.0129H20.8313V18.7662ZM1.66259 29.3831H13.643V40H1.66259V29.3831ZM5.25673 32.5682V36.8149H10.0489V32.5682H5.25673ZM20.8313 33.6298H40V37.8766H20.8313V33.6298ZM13.3977 0L16.2465 1.94197L7.7068 11.7801L0 5.80415L2.36675 3.40713L7.19276 7.14701L13.3977 0ZM13.3977 14.8637L16.2465 16.8057L7.7068 26.6438L0 20.6678L2.36675 18.2708L7.19276 22.0107L13.3977 14.8637Z" fill="#686868"/>
</svg>
